<svg width="17" height="17" viewBox="0 0 17 17" fill="none" xmlns="http://www.w3.org/2000/svg">
<ellipse cx="8.28906" cy="8.48215" rx="7.92969" ry="7.93174" fill="#505050"/>
<g clip-path="url(#clip0_274_658)">
<path d="M11.0995 8.74318L6.69827 13.1334C6.55406 13.2772 6.3206 13.2769 6.17664 13.1327C6.03279 12.9884 6.03316 12.7548 6.17738 12.6109L10.3167 8.48197L6.17723 4.35307C6.03303 4.20918 6.03266 3.97567 6.17649 3.83142C6.24865 3.7591 6.3432 3.72294 6.43774 3.72294C6.53204 3.72294 6.62621 3.75886 6.69825 3.83067L11.0995 8.22078C11.169 8.2899 11.2079 8.38396 11.2079 8.48197C11.2079 8.57997 11.1689 8.67393 11.0995 8.74318Z" fill="#FEFEFE"/>
</g>
<defs>
<clipPath id="clip0_274_658">
<rect width="9.51562" height="9.51809" fill="white" transform="matrix(1 0 0 -1 3.53125 13.241)"/>
</clipPath>
</defs>
</svg>
