<svg viewBox="0 0 32 32" xmlns="http://www.w3.org/2000/svg"><g data-name="ig instagram insta photo"><path d="M20.45 13.32a1 1 0 00-.57 1.3 4 4 0 11-2.31-2.3 1 1 0 10.71-1.87 6 6 0 00-6.37 9.85 6 6 0 008.48 0 6 6 0 001.36-6.41 1 1 0 00-1.3-.57z"/><circle cx="23" cy="9" r="1"/><path d="M28 9a5 5 0 00-4.9-5A77.11 77.11 0 009 4a5 5 0 00-5 4.92A91.91 91.91 0 004 23a5 5 0 004.9 5c2.36.22 4.73.34 7.1.34s4.71-.11 7.05-.34A5 5 0 0028 23.08 87.09 87.09 0 0028 9zm-2 14a3 3 0 01-3 3h-.1A71.73 71.73 0 019 26a3 3 0 01-3-3.08A92.4 92.4 0 016 9a3 3 0 013.09-3q3.44-.31 6.9-.32T23 6a3 3 0 013 3.08A85.13 85.13 0 0126 23z"/></g></svg>