<svg viewBox="0 0 32 32" xmlns="http://www.w3.org/2000/svg"><g data-name="wa whatsapp message communication chat"><path d="M16 3A13 13 0 004.53 22.13L3 27.74a1 1 0 00.27 1A1 1 0 004 29a.84.84 0 00.27 0l5.91-1.65a1 1 0 00-.53-1.93l-4.23 1.14 1.15-4.3a1 1 0 00-.1-.76A11 11 0 1116 27a11.23 11.23 0 01-1.84-.15 1 1 0 00-1.15.82 1 1 0 00.82 1.15A13 13 0 1016 3z"/><path d="M15 11.21l-1.16-1.6a2.06 2.06 0 00-1.5-.84 2.08 2.08 0 00-1.62.6l-1.2 1.2a2.81 2.81 0 00-.8 2.08c0 1.77 1.36 4 4 6.6 3.09 3 5.23 4 6.69 4a2.7 2.7 0 002-.81l1.2-1.2a2 2 0 00-.24-3.11L20.8 17a2.09 2.09 0 00-1.83-.3l-1.49.47a.53.53 0 01-.26-.09 11.42 11.42 0 01-2.35-2.26.31.31 0 010-.11c.13-.44.35-1.15.5-1.64a2 2 0 00-.37-1.86zm1.29 7.63a2.33 2.33 0 001.75.2l1.54-.46 1.61 1.25L20 21c-.48.47-2.25.33-5.86-3.21-3-2.91-3.41-4.5-3.41-5.18A.89.89 0 0111 12l1.28-1.19 1.18 1.65c-.16.49-.39 1.22-.51 1.65a2.12 2.12 0 00.05 1.4 11.24 11.24 0 003.33 3.33z"/></g></svg>